<?xml version="1.0" standalone="no"?>
<!DOCTYPE svg PUBLIC "-//W3C//DTD SVG 20010904//EN"
 "http://www.w3.org/TR/2001/REC-SVG-20010904/DTD/svg10.dtd">
<svg version="1.0" xmlns="http://www.w3.org/2000/svg"
 width="446.000000pt" height="412.000000pt" viewBox="0 0 446.000000 412.000000"
 preserveAspectRatio="xMidYMid meet">

<g transform="translate(0.000000,412.000000) scale(0.100000,-0.100000)"
fill="#1B5CFF" stroke="none">
<path d="M3185 3734 c-98 -11 -344 -79 -432 -119 -17 -8 -34 -15 -38 -15 -12
0 -184 -88 -248 -127 -279 -168 -564 -399 -825 -668 -164 -168 -209 -220 -356
-409 -80 -102 -256 -362 -256 -378 0 -22 -20 -3 -43 40 -82 155 -137 270 -137
285 0 5 -7 23 -15 40 -55 119 -69 342 -29 447 44 112 138 217 239 264 130 62
170 69 417 72 l228 2 91 79 90 78 -28 11 c-15 7 -112 20 -214 30 -177 17 -194
17 -330 0 -79 -9 -175 -26 -213 -36 -319 -90 -516 -349 -516 -677 0 -114 29
-259 71 -358 4 -11 20 -49 35 -85 41 -102 146 -292 201 -366 13 -17 23 -36 23
-41 0 -6 -13 -42 -29 -79 -37 -87 -75 -199 -98 -289 -22 -89 -25 -344 -4 -420
51 -189 181 -330 371 -402 112 -43 142 -48 295 -48 151 1 253 16 332 51 17 8
37 14 45 14 8 0 19 5 26 12 8 8 0 17 -36 36 -26 14 -76 44 -112 67 l-65 43
-94 -14 c-123 -17 -252 1 -347 47 -72 36 -151 113 -183 179 -60 125 -53 313
21 543 23 70 35 80 56 47 44 -71 243 -276 398 -409 183 -158 376 -280 588
-371 375 -160 644 -179 951 -67 140 51 339 212 446 362 54 74 103 172 129 256
12 41 26 84 31 97 5 13 9 34 9 47 0 15 10 31 26 42 119 82 163 203 113 313
-43 95 -122 150 -216 150 -118 0 -216 -85 -242 -211 -16 -78 4 -142 64 -200
25 -24 45 -52 45 -61 0 -63 -91 -264 -155 -343 -97 -118 -187 -192 -300 -245
-148 -70 -307 -86 -485 -51 -175 35 -251 60 -405 136 -218 106 -424 264 -670
510 -146 146 -245 261 -245 285 0 13 56 110 100 171 14 20 32 47 40 59 122
182 319 419 514 619 355 362 717 622 1051 756 117 47 323 94 417 94 159 2 308
-82 368 -207 13 -26 27 -56 33 -66 5 -11 12 -65 14 -120 11 -228 -49 -481
-188 -783 -10 -24 -19 -47 -19 -53 0 -6 40 -10 103 -10 l103 0 28 58 c29 58
72 168 108 277 72 213 93 423 63 610 -17 109 -32 152 -81 234 -66 110 -173
192 -319 241 -60 21 -223 33 -310 24z"/>
<path d="M2361 2731 c-11 -11 -26 -52 -36 -98 -62 -291 -214 -444 -507 -507
-15 -4 -35 -17 -44 -30 -14 -22 -14 -27 0 -54 11 -21 26 -33 48 -37 18 -4 60
-16 93 -27 237 -78 351 -204 410 -453 22 -91 38 -115 74 -115 16 0 33 6 39 13
6 7 22 58 37 112 69 272 206 406 480 470 40 9 65 33 65 62 0 25 -32 63 -54 63
-7 0 -42 9 -77 20 -242 75 -356 211 -424 500 -21 91 -62 123 -104 81z"/>
</g>
</svg>
